<?xml version="1.0" encoding="utf-8"?>
<!-- Generator: Adobe Illustrator 22.0.0, SVG Export Plug-In . SVG Version: 6.00 Build 0)  -->
<svg version="1.1" id="Layer_1" xmlns="http://www.w3.org/2000/svg" xmlns:xlink="http://www.w3.org/1999/xlink" x="0px" y="0px"
	 viewBox="0 0 73.8 123.3" style="enable-background:new 0 0 73.8 123.3;" xml:space="preserve">
<style type="text/css">
	.st0{fill:#FFFFFF;}
</style>
<path class="st0" d="M73.2,62.7c-1.2,6.5-3.9,12.5-7.7,17.5c-0.3,0.3-0.7,0.4-0.9,0.1c-0.3-0.1-0.3-0.5-0.1-0.8
	c2.9-5.3,4.4-11.3,4.6-17.2c0.1-5.8-1.6-11.4-4.4-16.2c-3-4.7-7-8.7-11.7-11.8c-2.3-1.6-4.8-3-7.4-4.2c-1-0.4-2.1-0.9-3.1-1.3v73.6
	c0,7.3-5.8,14.8-14.8,18.6c-11.2,4.7-23.1,1.6-26.6-7s2.7-19.2,13.9-23.9c8.8-3.6,18-2.5,23.2,2.3V0h4.4
	c0.4,13.8,7.9,18.4,16.8,26.8c5.1,4.6,9.2,10.1,11.8,16.5C73.7,49.6,74.5,56.5,73.2,62.7z"/>
</svg>
