<?xml version="1.0" encoding="UTF-8"?>
<svg version="1.1" viewBox="0 0 137 45" xmlns="http://www.w3.org/2000/svg">
<title>Artboard</title>
<desc>Created with Sketch.</desc>
<g fill="none" fill-rule="evenodd">
<g fill="#fff" fill-rule="nonzero">
<path d="m69.971 44.975v-44.954c0.13849-0.007544 0.23948-0.017882 0.34048-0.017603 3.5397 0.0019558 7.0799-0.019279 10.619 0.019838 1.4831 0.016206 2.9644 0.16289 4.447 0.24504 1.4484 0.07991 2.8981 0.13076 4.3446 0.2333 3.6367 0.25817 6.6921 1.6817 8.8875 4.653 1.0659 1.4423 1.6283 3.1207 1.8638 4.9055 0.25123 1.9053 0.13233 3.7739-0.41462 5.6228-0.55199 1.865-1.6481 3.3492-3.1248 4.5683-0.67145 0.55434-1.3969 1.0433-2.0924 1.5582 0.5587 0.31769 1.1524 0.62838 1.7192 0.98183 2.6931 1.6823 4.1974 4.1567 4.7309 7.2391 0.4882 2.8195 0.16758 5.556-1.179 8.0969-1.5793 2.981-4.0914 4.8815-7.2799 5.9117-2.5694 0.8304-5.2166 1.0352-7.8982 0.93825-0.35699-0.012853-0.71509-0.0030735-1.0724-0.0030735h-13.456c-0.14772 5.588e-4 -0.29488 5.588e-4 -0.4356 5.588e-4zm8.4085-6.4808c0.17346 0 0.29879 0.0030734 0.42441-2.794e-4 2.497-0.068734 4.9945-0.12964 7.4906-0.21486 0.4896-0.016764 0.99039-0.075719 1.461-0.20536 1.8359-0.50684 3.2719-1.5462 3.9946-3.3512 0.67145-1.677 0.60654-3.4074 0.1494-5.1391-0.66166-2.5049-2.3657-3.8066-4.8537-4.1305-1.1599-0.15116-2.3403-0.17295-3.5128-0.19698-1.6476-0.033808-3.296-0.015367-4.9444-0.017323-0.066306-2.794e-4 -0.13261 0.013412-0.20927 0.021514 2.798e-4 4.4079 2.798e-4 8.7991 2.798e-4 13.234zm0.0067145-31.57v11.387c2.7784-0.043867 5.5299-0.04722 8.2776-0.15088 1.0975-0.041352 2.1391-0.42609 2.9994-1.1707 2.1593-1.8695 2.5817-5.5364 0.90646-7.8871-1.0547-1.48-2.6167-1.9897-4.3141-2.0883-1.7919-0.10394-3.5925-0.069293-5.3892-0.088292-0.81665-0.0086616-1.6339-0.001397-2.4802-0.001397z"/>
<path d="m67.014 0.012642v44.977h-0.34889c-5.8122 0-11.625 0.031104-17.437-0.01289-3.0782-0.023258-6.0033-0.73752-8.5841-2.4973-2.8616-1.9514-4.5473-4.6675-5.0244-8.1116-0.27894-2.0128-0.1564-4.009 0.45325-5.9481 0.78395-2.4936 2.3516-4.3783 4.6103-5.6872 0.48654-0.28189 0.97449-0.56183 1.5055-0.86782-0.4401-0.2959-0.8511-0.58088-1.2705-0.85241-2.5346-1.6412-3.9539-3.9981-4.3932-6.9552-0.32791-2.2084-0.23586-4.4134 0.58475-6.5037 1.3757-3.5035 3.9575-5.6925 7.5861-6.6495 1.5536-0.40967 3.14-0.58312 4.7418-0.62908 1.8536-0.05324 3.7071-0.10424 5.561-0.14655 1.7621-0.040351 3.5244-0.080982 5.2868-0.099195 2.156-0.021857 4.3118-0.020736 6.468-0.028862 0.068827-5.6043e-4 0.13737 0.0061647 0.26048 0.01261zm-8.4383 38.269v-13.31c-0.10408-0.0050439-0.18326-0.012049-0.26244-0.011489-2.2013 0.020175-4.4038 0.0022417-6.6032 0.0793-0.96805 0.033906-1.9495 0.1813-2.8893 0.41864-1.6211 0.40883-2.7861 1.4201-3.4481 2.9812-0.61832 1.4577-0.76633 2.9641-0.55089 4.5305 0.32959 2.3936 1.7114 3.8896 3.8912 4.7622 1.2095 0.48421 2.4839 0.44918 3.7402 0.49794 1.6924 0.06613 3.3882 0.03923 5.0826 0.051279 0.34302 0.0022417 0.68575 2.802e-4 1.04 2.802e-4zm0.0097924-31.31h-0.45101c-1.8681 0-3.7365-0.025499-5.6041 0.010648-0.94063 0.018214-1.8908 0.079861-2.816 0.24126-2.1403 0.37352-3.5919 1.586-4.1481 3.7355-0.39394 1.5238-0.27922 3.0106 0.46584 4.4251 0.95127 1.8068 2.419 2.8691 4.4726 2.9232 2.5693 0.067531 5.141 0.034746 7.712 0.045114 0.12171 2.802e-4 0.24341 0 0.36848 0 2.798e-4 -3.8137 2.798e-4 -7.575 2.798e-4 -11.381z"/>
<path d="m99.536 44.964c4.1316-15.003 8.2554-29.976 12.383-44.964h11.352c4.4194 14.984 8.8373 29.963 13.265 44.978h-8.8161c-1.0141-3.8197-2.0334-7.6593-3.0564-11.513h-0.33327c-4.4445 0-8.889 0.0022393-13.334-0.0050385-0.25924-5.598e-4 -0.36651 0.057382-0.43495 0.3345-0.8998 3.6529-1.8197 7.3007-2.7256 10.952-0.043859 0.17747-0.096657 0.25388-0.28578 0.2536-2.6251-0.0053183-5.2507-0.0044786-7.8758-0.0058781-0.033243 0-0.066207-0.013996-0.13856-0.030231zm17.929-38.383c-0.029053-8.3975e-4 -0.058664-0.0019594-0.087996-0.003079-1.6778 6.7246-3.3556 13.449-5.0395 20.199h10.34c-1.7432-6.7538-3.4777-13.475-5.2122-20.196z"/>
<path d="m0 44.969c4.1372-14.998 8.2711-29.985 12.404-44.969h11.294c4.4304 14.979 8.8589 29.953 13.302 44.974-0.15149 0.0072767-0.27007 0.017632-0.38892 0.017912-2.6563 8.397e-4 -5.3126-0.0050377-7.9686 0.0083962-0.29964 0.0016793-0.41096-0.096836-0.48601-0.37643-0.96421-3.588-1.9429-7.1723-2.9068-10.761-0.075608-0.28155-0.19418-0.36943-0.48768-0.36859-4.4156 0.010635-8.8313 0.011475-13.247-0.0013994-0.32503-8.396e-4 -0.41793 0.11587-0.48908 0.40638-0.88776 3.6101-1.7898 7.2171-2.6856 10.825-0.042686 0.17184-0.097648 0.27344-0.31331 0.2726-2.6217-0.0081163-5.2434-0.0055975-7.8651-0.006717-0.045476 0-0.090394-0.011475-0.1621-0.02127zm23.167-18.143c-1.7557-6.7573-3.5053-13.491-5.2549-20.225-0.033479 0.002239-0.06668 0.004478-0.09988 0.006717-1.6754 6.7312-3.351 13.462-5.0325 20.218h10.387z"/>
<path d="m130.6 2.7644e-4c0.69301 0.13933 1.3204 0.40664 1.8636 0.85917 1.0549 0.8788 1.4935 1.9989 1.4127 3.3303-0.090108 1.4881-0.82206 2.6229-2.1643 3.283-2.34 1.1505-5.1106-0.23166-5.6081-2.664-0.32576-1.5934 0.11967-2.9706 1.4318-4.0346 0.47868-0.38784 1.0392-0.59794 1.6453-0.70796 0.076464-0.013822 0.14952-0.043677 0.22428-0.066069 0.39796 2.7644e-4 0.7962 2.7644e-4 1.1947 2.7644e-4zm2.4608 3.8986c0.001421-1.804-1.365-3.1251-3.2419-3.1351-1.5955-0.0082932-2.9946 1.453-3.0034 3.1376-0.009096 1.7465 1.4059 3.1661 3.1578 3.1674 1.7482 0.0019351 3.0862-1.372 3.0876-3.1699z"/>
<path d="m128.6 2.0075c0.66089 0 1.3056-0.020918 1.9482 0.0069727 0.44634 0.019309 0.82664 0.39986 0.89842 0.81849 0.11432 0.66697-0.06682 1.1183-0.54213 1.3519-0.055335 0.027086-0.10858 0.057927-0.17723 0.094936 0.22421 0.5672 0.66089 1.0084 0.82925 1.6415-0.28033 0-0.50559 0.016091-0.72667-0.0080455-0.083003-0.0091182-0.18193-0.0944-0.23074-0.17325-0.24066-0.39074-0.46591-0.79167-0.69848-1.188-0.15583-0.2655-0.15713-0.2647-0.5082-0.21455-0.022969 0.48997-0.0462 0.98342-0.071518 1.5252-0.23152 0.025477-0.45808 0.050418-0.72092 0.079382v-3.9345zm0.7961 1.611c0.30774-0.026818 0.59172-0.064096 0.87623-0.072946 0.26911-0.0085818 0.38526-0.21025 0.37116-0.40549-0.009919-0.13919-0.18558-0.34193-0.32288-0.37975-0.28999-0.07965-0.60321-0.069727-0.92452-0.098155v0.95634z"/>
</g>
</g>
</svg>
