<?xml version="1.0" encoding="UTF-8"?>
<svg width="14px" height="14px" viewBox="0 0 14 14" version="1.1" xmlns="http://www.w3.org/2000/svg" xmlns:xlink="http://www.w3.org/1999/xlink">
    <!-- Generator: Sketch 49.1 (51147) - http://www.bohemiancoding.com/sketch -->
    <title>Insta</title>
    <desc>Created with Sketch.</desc>
    <defs></defs>
    <g id="Insta" stroke="none" stroke-width="1" fill="none" fill-rule="evenodd">
        <path d="M7,0 C5.09833333,0 4.86091667,0.00875 4.11425,0.042 C3.36875,0.077 2.86125,0.19425 2.415,0.3675 C1.95475,0.546 1.56391667,0.78575 1.17483333,1.17483333 C0.78575,1.56391667 0.545416667,1.95416667 0.3675,2.415 C0.19425,2.86125 0.0764166667,3.36875 0.042,4.11425 C0.007,4.86091667 0,5.09833333 0,7 C0,8.90166667 0.00875,9.13908333 0.042,9.88575 C0.077,10.6306667 0.19425,11.13875 0.3675,11.585 C0.546,12.0446667 0.78575,12.4360833 1.17483333,12.8251667 C1.56391667,13.2136667 1.95416667,13.4545833 2.415,13.6325 C2.86183333,13.8051667 3.36933333,13.9235833 4.11425,13.958 C4.86091667,13.993 5.09833333,14 7,14 C8.90166667,14 9.13908333,13.99125 9.88575,13.958 C10.6306667,13.923 11.13875,13.8051667 11.585,13.6325 C12.0446667,13.454 12.4360833,13.2136667 12.8251667,12.8251667 C13.2136667,12.4360833 13.4545833,12.0464167 13.6325,11.585 C13.8051667,11.13875 13.9235833,10.6306667 13.958,9.88575 C13.993,9.13908333 14,8.90166667 14,7 C14,5.09833333 13.99125,4.86091667 13.958,4.11425 C13.923,3.36933333 13.8051667,2.86066667 13.6325,2.415 C13.454,1.95475 13.2136667,1.56391667 12.8251667,1.17483333 C12.4360833,0.78575 12.0464167,0.545416667 11.585,0.3675 C11.13875,0.19425 10.6306667,0.0764166667 9.88575,0.042 C9.13908333,0.007 8.90166667,0 7,0 Z M7,1.26 C8.86841667,1.26 9.09125,1.26933333 9.82916667,1.30141667 C10.5116667,1.3335 10.8820833,1.44666667 11.12825,1.5435 C11.4560833,1.67008333 11.68825,1.82175 11.9344167,2.06616667 C12.1788333,2.31116667 12.3305,2.54391667 12.4570833,2.87175 C12.55275,3.11791667 12.6670833,3.48833333 12.698,4.17083333 C12.73125,4.90933333 12.7388333,5.131 12.7388333,7 C12.7388333,8.869 12.7300833,9.09125 12.6956667,9.82916667 C12.6600833,10.5116667 12.5463333,10.8820833 12.4500833,11.12825 C12.3194167,11.4560833 12.1706667,11.68825 11.9256667,11.9344167 C11.68125,12.1788333 11.445,12.3305 11.1206667,12.4570833 C10.8756667,12.55275 10.4994167,12.6670833 9.81691667,12.698 C9.07375,12.73125 8.855,12.7388333 6.9825,12.7388333 C5.10941667,12.7388333 4.89066667,12.7300833 4.14808333,12.6956667 C3.465,12.6600833 3.08875,12.5463333 2.84375,12.4500833 C2.51183333,12.3194167 2.28375,12.1706667 2.03933333,11.9256667 C1.79375,11.68125 1.63683333,11.445 1.51433333,11.1206667 C1.41808333,10.8756667 1.30491667,10.4994167 1.26933333,9.81691667 C1.24308333,9.08191667 1.23375,8.855 1.23375,6.99125 C1.23375,5.12691667 1.24308333,4.89941667 1.26933333,4.15566667 C1.30491667,3.47316667 1.41808333,3.0975 1.51433333,2.8525 C1.63683333,2.52 1.79375,2.2925 2.03933333,2.04691667 C2.28375,1.8025 2.51183333,1.645 2.84375,1.52308333 C3.08875,1.42625 3.45683333,1.3125 4.13933333,1.2775 C4.88308333,1.25125 5.10183333,1.2425 6.97375,1.2425 L7,1.26 Z M7,3.4055 C5.01375,3.4055 3.4055,5.0155 3.4055,7 C3.4055,8.98625 5.0155,10.5945 7,10.5945 C8.98625,10.5945 10.5945,8.9845 10.5945,7 C10.5945,5.01375 8.9845,3.4055 7,3.4055 Z M7,9.33333333 C5.71083333,9.33333333 4.66666667,8.28916667 4.66666667,7 C4.66666667,5.71083333 5.71083333,4.66666667 7,4.66666667 C8.28916667,4.66666667 9.33333333,5.71083333 9.33333333,7 C9.33333333,8.28916667 8.28916667,9.33333333 7,9.33333333 Z M11.5768333,3.26375 C11.5768333,3.7275 11.2,4.10375 10.7368333,4.10375 C10.2730833,4.10375 9.89683333,3.72691667 9.89683333,3.26375 C9.89683333,2.80058333 10.2736667,2.42433333 10.7368333,2.42433333 C11.1994167,2.42375 11.5768333,2.80058333 11.5768333,3.26375 Z" id="Shape" fill="#ffffff" fill-rule="nonzero"></path>
    </g>
</svg>
