<?xml version="1.0" encoding="UTF-8"?>
<svg width="16px" height="16px" viewBox="0 0 16 16" version="1.1" xmlns="http://www.w3.org/2000/svg" xmlns:xlink="http://www.w3.org/1999/xlink">
    <!-- Generator: Sketch 49.1 (51147) - http://www.bohemiancoding.com/sketch -->
    <title>Shape</title>
    <desc>Created with Sketch.</desc>
    <defs></defs>
    <g id="Symbols" stroke="none" stroke-width="1" fill="none" fill-rule="evenodd" fill-opacity="1">
        <g id="FOOTER" transform="translate(-195.000000, -124.000000)" fill="#FFFFFF" fill-rule="nonzero">
            <path d="M210.998283,128.082438 C210.997716,127.590366 210.955149,127.101699 210.838232,126.621546 C210.627101,125.749778 210.130489,125.081764 209.38472,124.593665 C209.002187,124.343372 208.582195,124.188996 208.133826,124.108403 C207.788751,124.04654 207.440839,124.018162 207.090657,124.007946 C207.063414,124.006811 207.035036,124.002838 207.007793,124 L198.991625,124 C198.8906,124.005676 198.789575,124.011351 198.68855,124.017027 C198.190235,124.045405 197.695326,124.09989 197.227092,124.284914 C196.334893,124.637934 195.692419,125.253166 195.315561,126.13742 C195.187861,126.43709 195.12089,126.754922 195.073782,127.076727 C195.035756,127.337803 195.014189,127.600014 195.006811,127.863928 C195.006243,127.88436 195.001703,127.904792 195,127.925224 L195,136.074776 C195.005676,136.16899 195.010784,136.263205 195.017027,136.357419 C195.050513,136.900571 195.119754,137.440318 195.34848,137.9392 C195.782093,138.885886 196.506863,139.507928 197.504627,139.807031 C197.785567,139.891597 198.075021,139.931893 198.366745,139.959136 C198.736225,139.994324 199.106839,140 199.477453,140 C201.92873,140 204.380007,140 206.831283,139.998865 C207.181466,139.998865 207.529945,139.97673 207.877858,139.933028 C208.426685,139.862651 208.942594,139.699195 209.408558,139.392714 C209.969303,139.023802 210.389863,138.534568 210.661722,137.920471 C210.786017,137.63953 210.856962,137.340995 210.908042,137.03792 C210.984094,136.587847 211.000554,136.132666 210.999986,135.677486 C210.998851,133.145614 211.000554,130.61431 210.998283,128.082438 Z M206.716069,130.742577 C206.716069,132.012202 206.716637,133.281828 206.715502,134.550885 C206.715502,134.828988 206.677476,135.101983 206.553748,135.355113 C206.361347,135.748998 206.046353,135.996453 205.628631,136.115072 C205.395933,136.181476 205.158127,136.219503 204.91578,136.230286 C204.281252,136.260367 203.732992,135.830159 203.619481,135.206413 C203.525267,134.691639 203.771586,134.124082 204.312467,133.859033 C204.528139,133.752332 204.758567,133.692739 204.991265,133.642794 C205.24326,133.588308 205.49639,133.540634 205.74725,133.482743 C205.930004,133.440743 206.052028,133.328935 206.087784,133.138803 C206.096298,133.096804 206.099703,133.053102 206.099703,133.009968 C206.100271,131.799936 206.100271,130.590472 206.099135,129.381008 C206.099135,129.339576 206.092325,129.297577 206.082109,129.257848 C206.056001,129.157391 205.982786,129.096094 205.879491,129.10177 C205.77279,129.108013 205.667792,129.12504 205.562794,129.14604 C205.055967,129.24593 204.549706,129.348657 204.043446,129.450818 C203.526402,129.554681 203.009358,129.659679 202.491746,129.764109 C202.186401,129.825973 201.881055,129.887269 201.57571,129.949133 C201.564926,129.951403 201.554143,129.954808 201.543927,129.957646 C201.359471,130.008726 201.292499,130.093292 201.283986,130.283991 C201.282851,130.312937 201.283418,130.341882 201.283418,130.371395 C201.282851,132.105849 201.283418,133.840871 201.282283,135.574758 C201.282283,135.855131 201.251068,136.132099 201.138691,136.392608 C200.9531,136.820546 200.625053,137.08673 200.182359,137.215565 C199.948525,137.283105 199.708449,137.321698 199.465535,137.330212 C198.826466,137.354049 198.295801,136.929517 198.186262,136.300663 C198.09148,135.758646 198.339503,135.1769 198.954734,134.916392 C199.19254,134.816502 199.442265,134.761449 199.693125,134.709233 C199.884391,134.668937 200.076226,134.632613 200.266925,134.591749 C200.521757,134.536129 200.655133,134.376077 200.665917,134.115569 C200.667052,134.081515 200.666484,134.049165 200.666484,134.015111 C200.666484,132.041715 200.666484,130.067752 200.667619,128.094356 C200.667619,128.012061 200.676133,127.927495 200.69543,127.847469 C200.741969,127.657337 200.877615,127.548934 201.059233,127.501827 C201.2295,127.457557 201.402605,127.426909 201.575142,127.391721 C202.063809,127.292966 202.552475,127.194778 203.041141,127.096591 C203.546266,126.994431 204.050824,126.892838 204.555949,126.790678 C205.002049,126.700436 205.448148,126.60906 205.895383,126.521088 C206.041812,126.492143 206.190512,126.46263 206.338077,126.450711 C206.544667,126.434252 206.686556,126.564223 206.707556,126.771948 C206.712664,126.821326 206.715502,126.871271 206.715502,126.921216 C206.716637,128.195382 206.716637,129.468979 206.716069,130.742577 Z" id="Shape"></path>
        </g>
    </g>
</svg>
