<?xml version="1.0" encoding="UTF-8"?>
<svg width="24px" height="24px" viewBox="0 0 14 12" version="1.1" xmlns="http://www.w3.org/2000/svg" xmlns:xlink="http://www.w3.org/1999/xlink">
    <!-- Generator: Sketch 49.1 (51147) - http://www.bohemiancoding.com/sketch -->
    <title>TWT</title>
    <desc>Created with Sketch.</desc>
    <defs></defs>
    
    <g id="TWT" stroke="none" stroke-width="1" fill="#fff" fill-rule="evenodd">
        <path d="M13.7409776,1.33256621 C13.233306,1.55571225 12.691216,1.70772691 12.120444,1.77713737 C12.7021152,1.4266432 13.1495545,0.87422768 13.3612278,0.215115079 C12.8156959,0.533485395 12.2110792,0.76523604 11.5674548,0.894305088 C11.0534732,0.344184126 10.3209347,0 9.50751284,0 C7.94893239,0 6.68520301,1.26372938 6.68520301,2.82058891 C6.68520301,3.0443086 6.71101682,3.25942367 6.75805532,3.46536051 C4.41186686,3.35464795 2.33242109,2.22801858 0.940769945,0.524880792 C0.695825575,0.939049024 0.558725565,1.42033316 0.558725565,1.94464031 C0.558725565,2.92556507 1.05779255,3.78774631 1.81385034,4.29427061 C1.3509227,4.27935597 0.915529775,4.15200784 0.535779956,3.94090824 L0.535779956,3.9759003 C0.535779956,5.3440322 1.50695283,6.48500258 2.79936423,6.74486159 C2.56245082,6.80853565 2.31234369,6.84295407 2.05592651,6.84295407 C1.87580349,6.84295407 1.70313778,6.82574486 1.53047208,6.79362101 C1.89243905,7.91394034 2.93302239,8.730804 4.17151161,8.75374961 C3.20779606,9.51038104 1.98651605,9.96126225 0.671159046,9.96126225 C0.447439364,9.96126225 0.224293322,9.94806853 0,9.92282836 C1.25569842,10.7224828 2.73511652,11.1899996 4.33499907,11.1899996 C9.52873753,11.1899996 12.3653884,6.88999256 12.3653884,3.1670676 C12.3653884,3.0471768 12.3653884,2.92613871 12.3567838,2.80567427 C12.908052,2.41043616 13.3893361,1.91079554 13.7679387,1.34403901 L13.7409776,1.33256621 Z" id="Shape" fill="#C9C9C9" fill-rule="nonzero"></path>
    </g>
</svg>
